<?xml version="1.0" standalone="no"?>
<!DOCTYPE svg PUBLIC "-//W3C//DTD SVG 20010904//EN"
 "http://www.w3.org/TR/2001/REC-SVG-20010904/DTD/svg10.dtd">
<svg version="1.0" xmlns="http://www.w3.org/2000/svg"
 width="192.000000pt" height="192.000000pt" viewBox="0 0 192.000000 192.000000"
 preserveAspectRatio="xMidYMid meet">
<metadata>
Created by potrace 1.11, written by Peter Selinger 2001-2013
</metadata>
<g transform="translate(0.000000,192.000000) scale(0.100000,-0.100000)"
fill="#000000" stroke="none">
<path d="M0 960 l0 -960 960 0 960 0 0 960 0 960 -960 0 -960 0 0 -960z m1265
445 c24 -23 25 -29 25 -163 0 -136 0 -139 -26 -163 l-26 -24 -285 0 -285 0
-24 28 c-23 27 -24 35 -24 161 0 131 1 134 26 160 l27 26 284 0 284 0 24 -25z
m-368 -410 c12 -9 27 -32 33 -53 13 -48 13 -196 -1 -244 -18 -67 -31 -69 -345
-66 l-276 3 -24 28 c-23 27 -24 35 -24 158 l0 131 29 29 29 29 279 0 c234 0
282 -2 300 -15z m706 3 c42 -22 46 -37 47 -176 l0 -134 -29 -29 -29 -29 -275
0 -275 0 -31 26 -31 26 0 137 c0 142 4 157 45 179 29 16 549 16 578 0z"/>
<path d="M675 1374 c-13 -13 -15 -37 -13 -137 3 -118 4 -122 28 -134 18 -9 92
-13 265 -13 173 0 247 4 265 13 24 12 25 16 28 136 2 82 -1 128 -9 137 -9 11
-63 14 -280 14 -232 0 -270 -2 -284 -16z"/>
<path d="M317 952 c-14 -15 -17 -40 -17 -130 0 -163 -21 -152 296 -152 157 0
263 4 275 10 17 10 19 22 19 140 0 118 -2 130 -19 140 -12 6 -119 10 -279 10
-238 0 -260 -1 -275 -18z"/>
</g>
</svg>
